<?xml version="1.0" encoding="utf-8"?>
<!-- Generator: Adobe Illustrator 22.0.0, SVG Export Plug-In . SVG Version: 6.00 Build 0)  -->
<svg version="1.1" id="Слой_1" xmlns="http://www.w3.org/2000/svg" xmlns:xlink="http://www.w3.org/1999/xlink" x="0px" y="0px"
	 viewBox="0 0 102.3 89.3" style="enable-background:new 0 0 102.3 89.3;" xml:space="preserve" fill="#62a376">
<path d="M20.7,68.8c0.7,0.3,1.3,0.5,1.9,0.5c0.9,0,1.7-0.4,2.3-1c0.5-0.5,0.9-1.5,0.7-3.1l-0.7-4.3l3.2-3.1c1.1-1.1,1.5-2.4,1.1-3.6
	c-0.4-1.2-1.5-2-3-2.2l-4.4-0.6l-2-3.9c-0.7-1.4-1.8-2.2-3-2.2c-1.3,0-2.4,0.8-3,2.2l-2,3.9l-4.4,0.6c-1.5,0.2-2.6,1-3,2.2
	c-0.4,1.2,0,2.5,1.1,3.6l3.2,3.1L8,65.2c-0.3,1.5,0.2,2.5,0.7,3.1c1,1.1,2.6,1.4,4.2,0.5l3.9-2L20.7,68.8z"/>
<path d="M95.2,52.1l-4.4-0.6l-2-3.9c-0.7-1.4-1.8-2.2-3-2.2c-1.3,0-2.4,0.8-3,2.2l-2,3.9l-4.4,0.6c-1.5,0.2-2.6,1-3,2.2
	c-0.4,1.2,0,2.5,1.1,3.6l3.2,3.1L77,65.2c-0.3,1.5,0.2,2.5,0.7,3.1c1,1.1,2.6,1.4,4.2,0.5l3.9-2l3.9,2c0.7,0.3,1.3,0.5,1.9,0.5
	c0.9,0,1.7-0.4,2.3-1c0.5-0.5,0.9-1.5,0.7-3.1l-0.7-4.3l3.2-3.1c1.1-1.1,1.5-2.4,1.1-3.6C97.8,53.1,96.7,52.3,95.2,52.1z"/>
<path d="M51.3,34.3c9.4,0,17-7.6,17-17c0-9.4-7.6-17-17-17c-9.4,0-17,7.6-17,17C34.3,26.7,41.9,34.3,51.3,34.3z"/>
<path d="M62.5,76.6l5.3-5.4c1.4-1.4,1.9-3,1.4-4.5c-0.5-1.4-1.8-2.4-3.7-2.7L58.3,63L55,56.1c-1.2-2.5-3-2.8-3.7-2.8
	c-0.7,0-2.5,0.3-3.7,2.8L44.4,63l-7.2,1.1c-1.9,0.3-3.2,1.3-3.7,2.7c-0.5,1.4,0,3.1,1.4,4.5l5.3,5.4l-1.2,7.6
	c-0.3,2,0.3,3.3,0.8,3.9c1.2,1.4,3.2,1.6,5.2,0.5l6.4-3.5l6.4,3.5c0.9,0.5,1.7,0.7,2.5,0.7c1.1,0,2-0.4,2.7-1.2
	c0.6-0.7,1.2-1.9,0.8-3.9L62.5,76.6z"/>
<g>
	<path d="M23.5,45.7l1,2.1l2.3,0.3c3,0.4,5.4,2.3,6.2,4.9c0.9,2.7,0.1,5.5-2.1,7.7l-1.6,1.6l0.4,2.3c0.1,0.3,0.1,0.7,0.1,1
		c0,0,0,0,0,0c1-2.9,3.5-4.9,6.9-5.4l5.1-0.8l2.3-4.9c1.5-3.2,4.2-5.1,7.3-5.1c3.1,0,5.8,1.9,7.3,5.1l2.3,4.9l5.1,0.8
		c3.4,0.5,5.9,2.5,6.9,5.4c0,0,0,0,0,0c0-0.3,0.1-0.6,0.1-1l0.4-2.3l-1.6-1.6c-2.2-2.1-3-5-2.1-7.7c0.9-2.7,3.2-4.5,6.2-4.9l2.3-0.3
		l1-2.1c0.4-0.8,0.9-1.5,1.5-2.1c-3.2-4.9-7.9-9-14.7-11.3c-3.8,3.7-9,6-14.7,6c-5.8,0-11.1-2.4-14.9-6.2
		c-6.9,2.2-11.6,6.2-14.8,11.2C22.4,44,23,44.8,23.5,45.7z"/>
	<path d="M85.8,71.3l-2.1,1.1c-3.3,1.7-7,1-9.2-1.5c-0.6-0.7-1-1.6-1.3-2.5c-0.1,2-1.1,4-2.7,5.6L66.8,78l0,0.2h15.3
		c2.7,0,5.1-2.2,5.2-4.9c0-0.4,0-0.8,0-1.3L85.8,71.3z"/>
	<path d="M35.9,78L32,74c-1.6-1.7-2.5-3.6-2.7-5.6c-0.3,0.9-0.7,1.7-1.3,2.5c-1.3,1.6-3.3,2.5-5.4,2.5c-1.3,0-2.6-0.3-3.8-1
		l-2.1-1.1l-1.5,0.8c0,0.4,0,0.8,0,1.3c0.1,2.7,2.4,4.9,5.2,4.9h15.3L35.9,78z"/>
</g>
</svg>
