<?xml version="1.0" encoding="utf-8"?>
<!-- Generator: Adobe Illustrator 22.0.0, SVG Export Plug-In . SVG Version: 6.00 Build 0)  -->
<svg version="1.1" id="Слой_1" xmlns="http://www.w3.org/2000/svg" xmlns:xlink="http://www.w3.org/1999/xlink" x="0px" y="0px"
	 viewBox="0 0 100 96.9" style="enable-background:new 0 0 100 96.9;" xml:space="preserve" fill="#62a376">
<path d="M5.8,48.4c0-14.9,7.5-28.9,20-37c0.4-0.3,0.9-0.3,1.3,0l6.5,4.2c0.3,0.2,0.4,0.7,0.2,1c-0.1,0.1-0.2,0.2-0.3,0.2
	C16.1,26.1,9.4,47.6,18.5,65c6,11.4,17.6,18.6,30.4,19v-3.1c0-0.7,0.6-1.3,1.3-1.4c0.3,0,0.5,0.1,0.8,0.2l11.5,7.5
	c0.6,0.4,0.8,1.2,0.4,1.9c-0.1,0.2-0.2,0.3-0.4,0.4L51,97c-0.6,0.4-1.5,0.2-1.9-0.4c-0.1-0.2-0.2-0.5-0.2-0.7v-3.2
	C25,92,5.8,72.4,5.8,48.4z M66.5,80c-0.4,0.2-0.5,0.6-0.3,1c0.1,0.1,0.1,0.2,0.2,0.3l6.5,4.2c0.4,0.3,0.9,0.3,1.3,0
	C94.7,72.1,100.4,44.6,87,24.2C79,12,65.6,4.6,51.1,4.2V1c0-0.7-0.6-1.3-1.3-1.4c-0.3,0-0.5,0.1-0.8,0.2L37.5,7.4
	c-0.6,0.4-0.8,1.2-0.4,1.9c0.1,0.2,0.2,0.3,0.4,0.4L49,17.1c0.6,0.4,1.5,0.2,1.9-0.4c0.1-0.2,0.2-0.5,0.2-0.7v-3.1
	c19.7,0.6,35.1,17,34.5,36.7C85.2,62.4,77.9,74,66.5,80z M49.5,73.7c1.7,0,3-1.3,3-3v-3.3c7.1-1.2,11-5.9,11-11.4s-3-9-10.3-11.6
	c-5.3-2-7.4-3.3-7.4-5.3c0-1.7,1.3-3.5,5.3-3.5c1.9,0,3.7,0.3,5.5,0.8c1.9,0.5,3.9-0.6,4.5-2.5c0.5-1.9-0.6-3.9-2.5-4.5l0,0
	c-1.8-0.5-3.7-0.7-5.6-0.8v-2.4c0-1.7-1.4-3-3-3c-1.7,0-3,1.4-3,3v2.8c-6.6,1.3-10.4,5.6-10.4,11c0,6,4.5,9.1,11.1,11.3
	c4.6,1.5,6.5,3,6.5,5.4s-2.4,3.8-5.9,3.8c-2.3,0-4.5-0.4-6.7-1.2c-1.8-0.7-3.9,0.3-4.5,2.1c0,0.1-0.1,0.2-0.1,0.3l-0.1,0.3
	c-0.5,1.8,0.6,3.7,2.4,4.3c2.4,0.8,4.9,1.2,7.4,1.3v2.8C46.5,72.2,47.8,73.6,49.5,73.7C49.5,73.7,49.5,73.7,49.5,73.7L49.5,73.7z"/>
</svg>
