<?xml version="1.0" encoding="utf-8"?>
<!-- Generator: Adobe Illustrator 22.0.0, SVG Export Plug-In . SVG Version: 6.00 Build 0)  -->
<svg version="1.1" id="Слой_1" xmlns="http://www.w3.org/2000/svg" xmlns:xlink="http://www.w3.org/1999/xlink" x="0px" y="0px"
	 viewBox="0 0 88.5 89.4" style="enable-background:new 0 0 88.5 89.4;" xml:space="preserve" fill="#62a376">
<path d="M44.9,38.8c-2.5,0-4.5,2-4.5,4.5c0,1.7,0.8,3.1,2.1,3.9v4.9c0,1.3,1.1,2.4,2.4,2.4s2.4-1.1,2.4-2.4v-4.9
	c1.3-0.8,2.2-2.3,2.2-3.9C49.5,40.9,47.4,38.8,44.9,38.8z"/>
<path d="M76.6,1.1H13.1c-2.9,0-5.3,2.4-5.3,5.3v58.2c0,2.9,2.1,6.5,4.6,7.9l27.9,15.9c2.5,1.4,6.7,1.4,9.2,0l27.9-15.9
	c2.5-1.4,4.6-5,4.6-7.9V6.4C82,3.5,79.5,1.1,76.6,1.1z M32.4,26.8c0-6.9,5.7-12.5,12.5-12.5c6.9,0,12.5,5.7,12.5,12.5v5h-5.2v-5
	c0-4-3.3-7.3-7.3-7.3c-4.1,0-7.4,3.3-7.4,7.3h0v5h-5.2V26.8z M62.1,56.7c0,1.5-0.9,2.7-2.3,3.2c-4.9,1.6-9.9,2.4-15,2.4
	c-5.1,0-10.1-0.8-15-2.4c-1.4-0.5-2.3-1.8-2.3-3.2V37.6c0-2.7,2.2-4.9,4.9-4.9h24.6c2.7,0,4.9,2.2,4.9,4.9V56.7z"/>
</svg>
