<?xml version="1.0" encoding="utf-8"?>
<!-- Generator: Adobe Illustrator 22.0.0, SVG Export Plug-In . SVG Version: 6.00 Build 0)  -->
<svg version="1.1" id="Слой_1" xmlns="http://www.w3.org/2000/svg" xmlns:xlink="http://www.w3.org/1999/xlink" x="0px" y="0px"
	 viewBox="0 0 55 69" style="enable-background:new 0 0 55 69;" xml:space="preserve" fill="#99999a">
<g>
	<g>
		<path d="M52.5,8.5c1.4,0,2.5,1.1,2.5,2.5s-1.1,2.5-2.5,2.5h0c-0.3,0-0.5,0.2-0.5,0.5l-1.8,48.6C50,66.1,47,69,43.5,69h-32
			c-3.6,0-6.5-2.9-6.6-6.4L3.1,14c0-0.3-0.2-0.5-0.5-0.5h0C1.1,13.5,0,12.4,0,11s1.1-2.5,2.5-2.5h12.2c0.3,0,0.6-0.2,0.6-0.5
			l0.8-2.9C17,2.2,19.9,0,23,0h9c3,0,6,2.2,6.9,5.2L39.7,8c0.1,0.3,0.4,0.5,0.6,0.5H52.5z M25.5,22.5v34c0,1.1,0.9,2,2,2s2-0.9,2-2
			v-34c0-1.1-0.9-2-2-2S25.5,21.4,25.5,22.5z M14.5,22.6l1,34c0,1.1,1,2,2.1,1.9c1.1,0,2-1,1.9-2.1l-1-34c0-1.1-1-2-2.1-1.9
			C15.3,20.5,14.5,21.5,14.5,22.6z M36.5,22.4l-1,34c0,1.1,0.8,2,1.9,2.1c1.1,0,2-0.8,2.1-1.9l1-34c0-1.1-0.8-2-1.9-2.1
			C37.5,20.5,36.5,21.3,36.5,22.4z M20.9,8.5h13.2c0.3,0,0.4-0.2,0.4-0.5l-0.4-1.5C33.8,5.8,32.8,5,32,5h-9c-0.8,0-1.8,0.8-2,1.5
			L20.5,8C20.4,8.3,20.6,8.5,20.9,8.5z"/>
	</g>
</g>
</svg>
