<?xml version="1.0" encoding="utf-8"?>
<!-- Generator: Adobe Illustrator 22.0.0, SVG Export Plug-In . SVG Version: 6.00 Build 0)  -->
<svg version="1.1" id="Слой_1" xmlns="http://www.w3.org/2000/svg" xmlns:xlink="http://www.w3.org/1999/xlink" x="0px" y="0px"
	 viewBox="0 0 22.9 17.5" style="enable-background:new 0 0 22.9 17.5;" xml:space="preserve">
<style type="text/css">
	.st0{fill:#FFFFFF;}
</style>
<g id="surface1">
	<path class="st0" d="M19.7,2.8c0,0-2.4-1.9-5.2-2.1l-0.3,0.5c2.5,0.6,3.7,1.5,4.9,2.6c-2.1-1.1-4.2-2.1-7.8-2.1s-5.7,1-7.8,2.1
		c1.2-1.1,2.6-2.1,4.9-2.6L8.3,0.7C5.3,1,3.1,2.8,3.1,2.8S0.4,6.7-0.1,14.3c2.7,3.1,6.8,3.1,6.8,3.1l0.9-1.1c-1.5-0.5-3.1-1.4-4.5-3
		c1.7,1.3,4.2,2.6,8.3,2.6s6.6-1.3,8.3-2.6c-1.4,1.6-3,2.5-4.5,3l0.9,1.1c0,0,4.1,0,6.8-3.1C22.4,6.7,19.7,2.8,19.7,2.8z M8,12.2
		c-1,0-1.8-0.9-1.8-2.1S7,8,8,8S9.8,9,9.8,10.1S9,12.2,8,12.2z M14.8,12.2c-1,0-1.8-0.9-1.8-2.1S13.8,8,14.8,8s1.8,0.9,1.8,2.1
		S15.8,12.2,14.8,12.2z"/>
</g>
</svg>
