<?xml version="1.0" encoding="utf-8"?>
<!-- Generator: Adobe Illustrator 22.0.0, SVG Export Plug-In . SVG Version: 6.00 Build 0)  -->
<svg version="1.1" id="Слой_1" xmlns="http://www.w3.org/2000/svg" xmlns:xlink="http://www.w3.org/1999/xlink" x="0px" y="0px"
	 viewBox="0 0 100 73.4" style="enable-background:new 0 0 100 73.4;" xml:space="preserve" fill="#fff">
<g>
	<path d="M79.7,1.1H20.3c-3,0-5.8,0.8-8.3,2.1l34.9,34.9c1.7,1.7,4.7,1.7,6.4,0L88.1,3.2C85.6,1.9,82.7,1.1,79.7,1.1z"/>
	<path d="M40.4,44.5l-6.8-6.8L6.1,65.1c3.2,4.3,8.4,7,14.1,7h59.5c5.8,0,10.9-2.8,14.1-7L66.4,37.7l-6.8,6.8c-2.6,2.6-6,4-9.6,4
		S43,47,40.4,44.5z"/>
	<path d="M2.5,54.4c0,0.5,0,1,0.1,1.5l24.6-24.6L5.3,9.4c-1.8,2.8-2.8,6-2.8,9.5V54.4z"/>
	<path d="M97.5,18.9c0-3.5-1-6.8-2.8-9.5L72.8,31.3l24.6,24.6c0-0.5,0.1-1,0.1-1.5V18.9z"/>
</g>
</svg>
