<?xml version="1.0" encoding="UTF-8" standalone="no"?>
<!-- Created with Inkscape (http://www.inkscape.org/) -->

<svg
   xmlns:dc="http://purl.org/dc/elements/1.1/"
   xmlns:cc="http://creativecommons.org/ns#"
   xmlns:rdf="http://www.w3.org/1999/02/22-rdf-syntax-ns#"
   xmlns:svg="http://www.w3.org/2000/svg"
   xmlns="http://www.w3.org/2000/svg"
   xmlns:sodipodi="http://sodipodi.sourceforge.net/DTD/sodipodi-0.dtd"
   xmlns:inkscape="http://www.inkscape.org/namespaces/inkscape"
   version="1.1"
   id="svg2"
   xml:space="preserve"
   width="682.66669"
   height="682.66669"
   viewBox="0 0 682.66669 682.66669"
   sodipodi:docname="raid_calendar.svg"
   inkscape:version="0.92.1 r15371"><metadata
     id="metadata8"><rdf:RDF><cc:Work
         rdf:about=""><dc:format>image/svg+xml</dc:format><dc:type
           rdf:resource="http://purl.org/dc/dcmitype/StillImage" /><dc:title></dc:title></cc:Work></rdf:RDF></metadata><defs
     id="defs6"><clipPath
       clipPathUnits="userSpaceOnUse"
       id="clipPath18"><path
         d="M 0,512 H 512 V 0 H 0 Z"
         id="path16"
         inkscape:connector-curvature="0" /></clipPath></defs><sodipodi:namedview
     pagecolor="#ffffff"
     bordercolor="#666666"
     borderopacity="1"
     objecttolerance="10"
     gridtolerance="10"
     guidetolerance="10"
     inkscape:pageopacity="0"
     inkscape:pageshadow="2"
     inkscape:window-width="1920"
     inkscape:window-height="1017"
     id="namedview4"
     showgrid="false"
     inkscape:zoom="0.34570311"
     inkscape:cx="341.33334"
     inkscape:cy="341.33334"
     inkscape:window-x="-8"
     inkscape:window-y="-8"
     inkscape:window-maximized="1"
     inkscape:current-layer="g10" /><g
     id="g10"
     inkscape:groupmode="layer"
     inkscape:label="Векторный смарт-объект"
     transform="matrix(1.3333333,0,0,-1.3333333,0,682.66667)"><g
       id="g12"><g
         id="g14"
         clip-path="url(#clipPath18)"><g
           id="g20"
           transform="translate(469,66.5)"><path
             d="m 0,0 c -0.038,-12.41 -10.09,-22.462 -22.5,-22.5 h -381 c -12.411,0.038 -22.461,10.09 -22.5,22.5 v 230 c 0.039,12.411 10.089,22.461 22.5,22.5 h 381 C -10.09,252.461 -0.038,242.411 0,230 Z M 12.28,407.5 H -38 v -71.76 c 0,-23.47 -18,-42.24 -40.6,-42.24 h -12.8 c -22.6,0 -40.6,18.76 -40.6,42.24 v 71.76 h -154 v -71.76 c 0,-23.47 -18.34,-42.24 -40.92,-42.24 h -12.8 c -22.58,0 -41.28,18.76 -41.28,42.24 v 71.76 h -57.28 c -16.9,0 -30.72,-14.75 -30.72,-32.31 V -34.57 c 0,-17.56 13.82,-31.93 30.72,-31.93 H 12.28 c 16.9,0 30.72,14.37 30.72,31.93 v 409.76 c 0,17.56 -13.82,32.31 -30.72,32.31"
             style="fill:#fff;fill-opacity:1;fill-rule:nonzero;stroke:none"
             id="path22"
             inkscape:connector-curvature="0" /></g><g
           id="g24"
           transform="translate(129.2798,378)"><path
             d="m 0,0 h 12.8 c 12.7,0 22.92,11 22.92,24.24 v 85.81 C 35.72,123.26 25.5,134 12.8,134 H 0 c -12.7,0 -23.28,-10.74 -23.28,-23.95 V 24.23 C -23.28,11 -12.7,0 0,0"
             style="fill:#fff;fill-opacity:1;fill-rule:nonzero;stroke:none"
             id="path26"
             inkscape:connector-curvature="0" /></g><g
           id="g28"
           transform="translate(377.5996,378)"><path
             d="M 0,0 H 12.801 C 25.5,0 35.4,11 35.4,24.24 v 85.82 C 35.4,123.26 25.5,134 12.801,134 H 0 c -12.699,0 -22.6,-10.74 -22.6,-23.94 V 24.24 C -22.6,11 -12.699,0 0,0"
             style="fill:#fff;fill-opacity:1;fill-rule:nonzero;stroke:none"
             id="path30"
             inkscape:connector-curvature="0" /></g><path
           d="m 80,275 h 90 V 199 H 80 Z"
           style="fill:#fff;fill-opacity:1;fill-rule:nonzero;stroke:none"
           id="path32"
           inkscape:connector-curvature="0" /><path
           d="m 80,164 h 90 V 88 H 80 Z"
           style="fill:#fff;fill-opacity:1;fill-rule:nonzero;stroke:none"
           id="path34"
           inkscape:connector-curvature="0" /><path
           d="m 211,275 h 90 v -76 h -90 z"
           style="fill:#fff;fill-opacity:1;fill-rule:nonzero;stroke:none"
           id="path36"
           inkscape:connector-curvature="0" /><path
           d="m 211,164 h 90 V 88 h -90 z"
           style="fill:#fff;fill-opacity:1;fill-rule:nonzero;stroke:none"
           id="path38"
           inkscape:connector-curvature="0" /><path
           d="m 345,275 h 90 v -76 h -90 z"
           style="fill:#fff;fill-opacity:1;fill-rule:nonzero;stroke:none"
           id="path40"
           inkscape:connector-curvature="0" /><path
           d="m 345,164 h 90 V 88 h -90 z"
           style="fill:#fff;fill-opacity:1;fill-rule:nonzero;stroke:none"
           id="path42"
           inkscape:connector-curvature="0" /></g></g></g></svg>