<?xml version="1.0" encoding="utf-8"?>
<!-- Generator: Adobe Illustrator 22.0.0, SVG Export Plug-In . SVG Version: 6.00 Build 0)  -->
<svg version="1.1" id="Capa_1" xmlns="http://www.w3.org/2000/svg" xmlns:xlink="http://www.w3.org/1999/xlink" x="0px" y="0px"
	 viewBox="0 0 512 474.8" style="enable-background:new 0 0 512 474.8;" xml:space="preserve" fill="#fff">
<g>
	<path class="st0" d="M489.7,268.3c7.2,10.2,12.7,21.3,16.6,33.5c3.8,12.1,5.8,24.7,5.8,37.7c0,18.6-3.8,36.1-11.2,52.5
		c-7.5,16.3-17.7,30.7-30.8,43.2c-13.1,12.4-28.3,22.1-45.9,29.2s-36,10.5-55.6,10.5c-27.9,0-53-6.6-75.2-19.8
		c-6.2,0.9-12.4,1.5-18.6,1.9c-6.3,0.4-12.5,0.6-18.8,0.6c-32.6,0-63.2-5.8-91.9-17.5c-28.6-11.7-53.6-27.6-75.2-47.9
		c-21.5-20.2-38.4-44-50.6-71.2c-12.3-27.2-18.5-56.3-18.5-87.3c0-6,0.3-11.7,0.9-17c0.6-5.3,1.4-10.7,2.2-16
		C7.6,179.5,0,156.7,0,132.2C0,114,3.8,96.8,11.2,80.6C18.7,64.5,28.9,50.4,42,38.5c13.1-11.9,28.4-21.3,45.8-28.2
		C105.3,3.4,123.8,0,143.4,0c14.1,0,27.4,1.7,40,5c12.6,3.4,24.4,8.2,35.2,14.4c6.1-0.9,12.4-1.5,18.6-2c6.3-0.4,12.6-0.6,18.7-0.6
		c32.7,0,63.4,5.7,92.2,17c28.7,11.2,53.8,26.8,75.3,46.6c21.6,19.9,38.5,42.8,50.9,69c12.3,26.2,18.4,54.3,18.4,84.2
		C492.8,244.8,491.8,256.3,489.7,268.3z M368.5,336.4c10.1-13.3,15.1-28.9,15.1-46.8c0-14.1-2.8-25.9-8.3-35.6
		c-5.8-9.6-13.9-17.6-24.4-24c-9.6-6.2-22.2-11.7-37.5-16.6c-15.4-3.9-31.8-7.7-49.1-11.5l-18.9-4.3c-5.1-1.1-9.1-2-12.2-2.8
		c-3.4-0.8-6.5-1.7-9.5-2.8c-2.8-1-5.8-2.2-8.8-3.4c-5.8-2.4-10.6-5.7-14.5-9.6c-3-3.3-4.5-7.8-4.5-13.4c0-8.1,4.8-15.4,14.5-21.9
		c10.9-6,24.2-8.9,40.1-8.7c18.3,0,31.2,2.7,38.4,8.1c8.8,6.4,15.6,14.3,20.5,23.7c4.3,6.8,8.6,11.9,13.1,15.3
		c4.3,3.3,10.2,5,17.7,5.3c8.4,0,15.4-2.8,21.2-8.4c5.7-5.2,8.5-11.1,8.3-17.8c0-7.7-2.2-15.2-6.4-22.5c-4.2-6.8-11.3-14.1-21-21.8
		c-4.9-3.3-10.4-6.4-16.2-9.1c-5.9-2.8-12.5-5.3-19.6-7.4c-7.5-2-15.4-3.6-23.7-4.7c-8.3-1-17.4-1.5-27.5-1.5
		c-25.4,0-46.8,3.1-64.2,9.3c-18.7,6.5-32.9,15.4-42.5,26.9c-9.6,11-14.4,24.2-14.4,39.5c0,16.2,4.7,29.4,13.8,39.5
		c9.2,11,21.8,19.3,37.6,24.9c15.1,6,34.3,11.3,57.9,15.8c8.8,2.1,16.5,3.8,23.4,5.2c6.7,1.3,12.8,2.8,18.2,4.5
		c10.1,2.7,18.2,7.3,24.5,13.9c6.7,5.7,10,12.9,10,21.9c0,12.4-6.1,22.4-18.1,30.1c-11.4,7.8-26.7,11.7-46,11.4
		c-15.5,0-26.7-1.8-33.8-5.4c-8.8-4-15.3-9.1-19.6-15.2c-5.4-6.9-9.8-14.6-13.2-22.9c-3-7.9-7.1-13.8-12.5-17.9
		c-5-4.1-10.8-6.1-17.7-6.1c-8.8,0-16,2.4-21.7,7.3c-5.7,5.5-8.5,11.9-8.3,19.1c0,12.5,4.6,25,13.8,37.6c9.1,12.9,20.8,23,35.1,30.2
		c20.9,10.8,47.2,16.3,78.7,16.5c25.7,0,48.7-3.8,68.7-11.5C344.4,360.1,359,349.4,368.5,336.4z"/>
</g>
</svg>
