<?xml version="1.0" encoding="utf-8"?>
<!-- Generator: Adobe Illustrator 22.0.0, SVG Export Plug-In . SVG Version: 6.00 Build 0)  -->
<svg version="1.1" id="Слой_1" xmlns="http://www.w3.org/2000/svg" xmlns:xlink="http://www.w3.org/1999/xlink" x="0px" y="0px"
	 viewBox="0 0 94.3 95" style="enable-background:new 0 0 94.3 95;" xml:space="preserve" fill="#62a376">
<path d="M91.2,51.1c0,2.8,0,5.5,0,8.3c0,2.6-1.4,5.1-3.7,6.4c-1.8,1.1-4,1.8-6.1,1.9h-0.5c-2.6,0-4.9-1.5-5.9-3.9
	c-0.5-1.3-0.9-2.6-0.9-4v-0.1l0.2-13c0.3-2.7,2.1-5,4.7-5.9c-0.1-4.6-1.2-9.1-3.2-13.2c-5.1-10.1-13.3-16-24.3-17.6
	c-17.1-2.5-33.1,9.1-36,26.2c-0.2,1.4-0.3,2.7-0.4,4.1v0.6c2.2,0.7,3.8,2.4,4.4,4.6c0.3,1,0.5,2.1,0.5,3.2c0,3.9,0,7.4,0,10.8
	c0,1.2-0.2,2.3-0.6,3.4c-0.4,1.4-1.3,2.6-2.4,3.5c0.8,9.4,8.7,16.7,18.1,16.7h2.4c0.8-1.5,2.4-2.4,4.1-2.4h9c2.6,0,4.7,2.1,4.7,4.7
	l0,0v5c0,2.6-2.1,4.7-4.7,4.7h0h-9c-1.7,0-3.3-0.9-4.1-2.4h-2.4C20.4,92.5,8.3,81,7.4,66.3c-0.5-0.3-1-0.5-1.4-0.9
	c-1.9-1.3-3.1-3.4-3.2-5.7c-0.1-3.6-0.1-7.5,0-11.4c0-2.2,1-4.2,2.8-5.5C5.2,32.1,9.1,21.6,16.4,13.7c5.7-6.5,13.5-11,22-12.6
	c16-3.1,29.5,1.6,40.2,13.7c6.8,7.8,10.1,17.3,9.8,28.1c1.8,1.4,2.8,3.6,2.8,5.8L91.2,51.1z M66.4,37.8v19.7c0,3.5-2.8,6.3-6.3,6.3
	c0,0,0,0,0,0h-8l-5.8,5.8c-1,1-2.5,1-3.5,0c-0.5-0.5-0.7-1.1-0.7-1.7v-4h-8c-3.5,0-6.3-2.8-6.3-6.3V37.8c0-3.5,2.8-6.3,6.3-6.3h26
	C63.5,31.4,66.3,34.2,66.4,37.8C66.4,37.8,66.4,37.8,66.4,37.8z M42.2,47.6c0-1.3-1.1-2.4-2.4-2.4s-2.4,1.1-2.4,2.4
	c0,1.3,1.1,2.4,2.4,2.4S42.2,48.9,42.2,47.6L42.2,47.6z M49.4,47.6c0-1.3-1.1-2.4-2.4-2.3c-1.3,0-2.4,1.1-2.3,2.4
	c0,1.3,1.1,2.3,2.4,2.4C48.3,50,49.4,48.9,49.4,47.6C49.4,47.6,49.4,47.6,49.4,47.6z M56.5,47.6c0-1.3-1.1-2.4-2.4-2.4
	s-2.4,1.1-2.4,2.4c0,1.3,1.1,2.4,2.4,2.4C55.5,50,56.5,48.9,56.5,47.6C56.5,47.6,56.5,47.6,56.5,47.6L56.5,47.6z"/>
</svg>
